<mxfile host="app.diagrams.net" agent="Mozilla/5.0 (Windows NT 10.0; Win64; x64) AppleWebKit/537.36 (KHTML, like Gecko) Chrome/132.0.0.0 Safari/537.36" version="25.0.3">
  <diagram id="kgpKYQtTHZ0yAKxKKP6v" name="Page-1">
    <mxGraphModel dx="1434" dy="780" grid="1" gridSize="10" guides="1" tooltips="1" connect="1" arrows="1" fold="1" page="1" pageScale="1" pageWidth="850" pageHeight="1100" math="0" shadow="0">
      <root>
        <mxCell id="0" />
        <mxCell id="1" parent="0" />
        <mxCell id="YyRgcOt9pvVZMx8GNEMt-5" style="edgeStyle=orthogonalEdgeStyle;rounded=0;orthogonalLoop=1;jettySize=auto;html=1;exitX=0.5;exitY=1;exitDx=0;exitDy=0;entryX=0.5;entryY=0;entryDx=0;entryDy=0;endArrow=none;endFill=0;" edge="1" parent="1" source="YyRgcOt9pvVZMx8GNEMt-1" target="YyRgcOt9pvVZMx8GNEMt-3">
          <mxGeometry relative="1" as="geometry" />
        </mxCell>
        <mxCell id="YyRgcOt9pvVZMx8GNEMt-6" style="edgeStyle=orthogonalEdgeStyle;rounded=0;orthogonalLoop=1;jettySize=auto;html=1;exitX=1;exitY=0.5;exitDx=0;exitDy=0;entryX=0;entryY=0.5;entryDx=0;entryDy=0;endArrow=none;endFill=0;" edge="1" parent="1" source="YyRgcOt9pvVZMx8GNEMt-1" target="YyRgcOt9pvVZMx8GNEMt-4">
          <mxGeometry relative="1" as="geometry" />
        </mxCell>
        <mxCell id="YyRgcOt9pvVZMx8GNEMt-1" value="&amp;lt;&amp;lt;sistema&amp;gt;&amp;gt;&lt;div&gt;&lt;br&gt;&lt;/div&gt;&lt;div&gt;Gestão de ferramentas&lt;/div&gt;" style="rounded=0;whiteSpace=wrap;html=1;strokeWidth=2;" vertex="1" parent="1">
          <mxGeometry x="380" y="360" width="130" height="60" as="geometry" />
        </mxCell>
        <mxCell id="YyRgcOt9pvVZMx8GNEMt-7" style="edgeStyle=orthogonalEdgeStyle;rounded=0;orthogonalLoop=1;jettySize=auto;html=1;exitX=1;exitY=0.5;exitDx=0;exitDy=0;entryX=0;entryY=0.5;entryDx=0;entryDy=0;endArrow=none;endFill=0;" edge="1" parent="1" source="YyRgcOt9pvVZMx8GNEMt-2" target="YyRgcOt9pvVZMx8GNEMt-1">
          <mxGeometry relative="1" as="geometry" />
        </mxCell>
        <mxCell id="YyRgcOt9pvVZMx8GNEMt-2" value="&amp;lt;&amp;lt;sistema&amp;gt;&amp;gt;&lt;div&gt;&lt;br&gt;&lt;/div&gt;&lt;div&gt;Sistema de Usuários&lt;/div&gt;" style="rounded=0;whiteSpace=wrap;html=1;strokeWidth=2;" vertex="1" parent="1">
          <mxGeometry x="160" y="360" width="130" height="60" as="geometry" />
        </mxCell>
        <mxCell id="YyRgcOt9pvVZMx8GNEMt-3" value="&amp;lt;&amp;lt;sistema&amp;gt;&amp;gt;&lt;div&gt;&lt;br&gt;&lt;/div&gt;&lt;div&gt;Sistema de Ferramentas&lt;/div&gt;" style="rounded=0;whiteSpace=wrap;html=1;strokeWidth=2;" vertex="1" parent="1">
          <mxGeometry x="375" y="515" width="140" height="70" as="geometry" />
        </mxCell>
        <mxCell id="YyRgcOt9pvVZMx8GNEMt-4" value="&amp;lt;&amp;lt;sistema&amp;gt;&amp;gt;&lt;div&gt;&lt;br&gt;&lt;/div&gt;&lt;div&gt;Sistema de geração de relatórios&lt;/div&gt;" style="rounded=0;whiteSpace=wrap;html=1;strokeWidth=2;" vertex="1" parent="1">
          <mxGeometry x="620" y="355" width="130" height="70" as="geometry" />
        </mxCell>
      </root>
    </mxGraphModel>
  </diagram>
</mxfile>
